REM DIRINDEX 1\2,1\3
REM DIRNAME cjc052,folder01,folder02
TITLE ""
FILE "Disk1Track35.mp3" MP3
  TRACK 01 AUDIO
    TITLE "2:cjc052_0233"
    INDEX 01 00:00:00
  TRACK 02 AUDIO
    TITLE "2:cjc052_0234"
    INDEX 01 00:06:57
  TRACK 03 AUDIO
    TITLE "2:cjc052_0235"
    INDEX 01 00:16:69
  TRACK 04 AUDIO
    TITLE "2:cjc052_0236"
    INDEX 01 00:26:26
  TRACK 05 AUDIO
    TITLE "0:"
    INDEX 01 00:41:34
